# xmcd
#
# Track frame offsets:
# 150
# 13704
# 26130
# 42685
# 54753
# 68745
# 86316
# 100106
# 111925
# 125436
# 139003
# 154169
#
# Disc length: 2300 seconds
#
#
# Revision: 0
# Processed by: cddbd v1.5.2PL0 Copyright (c) Steve Scherf et al.
# Submitted via: FreeRIP 2.945 
#
DISCID=9908fa0c
DTITLE=Os Campesinos - Gaita Campesina
DYEAR=1900
DGENRE=
TTITLE0=Saudades do Esquilador
TTITLE1=Meu Jeito
TTITLE2=Coração de Potro
TTITLE3=Ovelha não é pra Mato
TTITLE4=Tranco do Bugio
TTITLE5=Chá de Guampa
TTITLE6=Prenda Rosa
TTITLE7=Bichos de Pé
TTITLE8=Estrada Longa
TTITLE9=Enforquilhado na Lida
TTITLE10=Na Luz do Teu Olhar
TTITLE11=Gaita Campesina
EXTD=
EXTT0=
EXTT1=
EXTT2=
EXTT3=
EXTT4=
EXTT5=
EXTT6=
EXTT7=
EXTT8=
EXTT9=
EXTT10=
EXTT11=
PLAYORDER=
